<mxfile host="app.diagrams.net" modified="2024-06-10T18:14:36.900Z" agent="Mozilla/5.0 (Windows NT 10.0; Win64; x64) AppleWebKit/537.36 (KHTML, like Gecko) Chrome/122.0.0.0 YaBrowser/24.4.0.0 Safari/537.36" version="22.1.18" etag="OO4kzhNUlbWHDy9IQ3Q7" type="github">
  <diagram name="Страница — 1" id="cGT46rpsC50pDiPhwPdR">
    <mxGraphModel>
      <root>
        <mxCell id="0" />
        <mxCell id="1" parent="0" />
      </root>
    </mxGraphModel>
  </diagram>
</mxfile>
